<?xml version="1.0" encoding="UTF-8" standalone="no" ?>
<!DOCTYPE svg PUBLIC "-//W3C//DTD SVG 1.1//EN" "http://www.w3.org/Graphics/SVG/1.1/DTD/svg11.dtd">
<svg xmlns="http://www.w3.org/2000/svg" xmlns:xlink="http://www.w3.org/1999/xlink" version="1.1" width="1080" height="1080" viewBox="0 0 1080 1080" xml:space="preserve">
<desc>Created with Fabric.js 5.2.4</desc>
<defs>
</defs>
<g transform="matrix(1 0 0 1 540 540)" id="5b6e5f14-4f55-4ad4-af50-5e5483474a21"  >
</g>
<g transform="matrix(1 0 0 1 540 540)" id="064d2e56-d3e6-41f4-98e8-1445cb529b11"  >
<rect style="stroke: none; stroke-width: 1; stroke-dasharray: none; stroke-linecap: butt; stroke-dashoffset: 0; stroke-linejoin: miter; stroke-miterlimit: 4; fill: rgb(255,255,255); fill-rule: nonzero; opacity: 1; visibility: hidden;" vector-effect="non-scaling-stroke"  x="-540" y="-540" rx="0" ry="0" width="1080" height="1080" />
</g>
<g transform="matrix(0.44 0 0 0.44 455.87 426.02)"  >
<g style="" vector-effect="non-scaling-stroke"   >
		<g transform="matrix(1.56 0 0 1.56 0 156.83)"  >
<path style="stroke: none; stroke-width: 1; stroke-dasharray: none; stroke-linecap: butt; stroke-dashoffset: 0; stroke-linejoin: miter; stroke-miterlimit: 4; fill: rgb(0,0,0); fill-rule: nonzero; opacity: 1;" vector-effect="non-scaling-stroke"  transform=" translate(-256, -356.37)" d="M 379.937 200.743 L 379.937 250.316 C 379.925 284.52 366.067 315.401 343.591 337.91200000000003 C 321.07800000000003 360.39000000000004 290.207 374.247 256.005 374.247 C 221.801 374.247 190.91899999999998 360.39 168.40699999999998 337.91200000000003 C 145.93099999999998 315.401 132.07399999999998 284.519 132.06199999999998 250.31600000000003 L 132.06199999999998 200.74300000000002 L 95.49 200.74300000000002 L 95.49 250.31600000000003 C 95.52499999999999 332.68600000000004 157.765 400.582 237.71999999999997 409.70000000000005 L 237.71999999999997 479.4870000000001 L 190.98099999999997 479.4870000000001 L 190.98099999999997 512 L 321.00699999999995 512 L 321.00699999999995 479.487 L 274.2919999999999 479.487 L 274.2919999999999 409.7 C 354.2339999999999 400.581 416.47399999999993 332.686 416.5099999999999 250.316 L 416.5099999999999 200.743 L 379.937 200.743 z" stroke-linecap="round" />
</g>
		<g transform="matrix(1.56 0 0 1.56 0 -139.04)"  >
<path style="stroke: none; stroke-width: 1; stroke-dasharray: none; stroke-linecap: butt; stroke-dashoffset: 0; stroke-linejoin: miter; stroke-miterlimit: 4; fill: rgb(0,0,0); fill-rule: nonzero; opacity: 1;" vector-effect="non-scaling-stroke"  transform=" translate(-256, -167.02)" d="M 256.006 334.032 C 302.16099999999994 334.032 339.71 296.471 339.71 250.31599999999997 L 339.71 83.716 C 339.71 37.561 302.161 0 256.006 0 C 209.84999999999997 0 172.289 37.561 172.289 83.716 L 172.289 250.315 C 172.289 296.471 209.85 334.032 256.006 334.032 z" stroke-linecap="round" />
</g>
</g>
</g>
<g transform="matrix(6.44 0 0 6.44 453.68 417.3)" id="f34ce2ab-bea5-49e0-a114-cb85d2e7d9e9"  >
<path style="stroke: rgb(0,0,0); stroke-width: 20; stroke-dasharray: none; stroke-linecap: butt; stroke-dashoffset: 0; stroke-linejoin: miter; stroke-miterlimit: 4; fill: rgb(101,101,101); fill-rule: nonzero; opacity: 1;" vector-effect="non-scaling-stroke"  transform=" translate(-50, -50)" d="M 50 92.875 C 26.358 92.875 7.125 73.642 7.125 50 C 7.125 26.358000000000004 26.358 7.125 50 7.125 C 73.642 7.125 92.875 26.358 92.875 50 C 92.875 73.642 73.642 92.875 50 92.875 z M 50 9.125 C 27.461 9.125 9.125 27.461 9.125 50 C 9.125 72.538 27.461 90.875 50 90.875 C 72.538 90.875 90.875 72.538 90.875 50 C 90.875 27.461 72.538 9.125 50 9.125 z" stroke-linecap="round" />
</g>
<g transform="matrix(2.98 2.56 -1.94 2.26 760.95 724.52)" id="192f027a-3d2b-4556-8209-90501e607c3e"  >
<path style="stroke: rgb(0,0,0); stroke-width: 0; stroke-dasharray: none; stroke-linecap: butt; stroke-dashoffset: 0; stroke-linejoin: miter; stroke-miterlimit: 4; fill: rgb(0,0,0); fill-rule: nonzero; opacity: 1;" vector-effect="non-scaling-stroke"  transform=" translate(-50, -50)" d="M 94.75 50 C 94.75 56.213 89.514 61.25 83.054 61.25 L 16.946 61.25 C 10.486 61.25 5.25 56.213 5.25 50 L 5.25 50 C 5.25 43.787 10.486 38.75 16.945999999999998 38.75 L 83.053 38.75 C 89.514 38.75 94.75 43.787 94.75 50 L 94.75 50 z" stroke-linecap="round" />
</g>
</svg>